<?xml version="1.0" standalone="no"?>
<!DOCTYPE svg PUBLIC "-//W3C//DTD SVG 20010904//EN"
 "http://www.w3.org/TR/2001/REC-SVG-20010904/DTD/svg10.dtd">
<svg version="1.0" xmlns="http://www.w3.org/2000/svg"
 width="1024.000000pt" height="1024.000000pt" viewBox="0 0 1024.000000 1024.000000"
 preserveAspectRatio="xMidYMid meet">

<g transform="translate(0.000000,1024.000000) scale(0.100000,-0.100000)"
fill="#000000" stroke="none">
<path d="M2863 8303 c-23 -4 -23 -5 -23 -195 0 -177 1 -190 18 -183 9 4 56 10
105 13 l87 4 0 184 0 184 -82 -1 c-46 -1 -93 -4 -105 -6z"/>
<path d="M3140 8115 l0 -175 28 -12 c97 -40 138 -61 173 -89 l39 -31 0 205 0
205 -52 22 c-66 28 -137 50 -165 50 -23 0 -23 0 -23 -175z"/>
<path d="M2675 8270 c-11 -4 -46 -18 -77 -30 l-58 -22 0 -225 c0 -177 3 -223
13 -217 6 5 30 22 53 39 22 17 63 41 92 53 l52 23 0 194 0 195 -27 -1 c-16 0
-37 -4 -48 -9z"/>
<path d="M2385 8135 c-33 -19 -82 -51 -110 -73 l-50 -38 -2 -369 -3 -370 28
65 c38 87 94 182 153 258 l49 62 -2 250 -3 249 -60 -34z"/>
<path d="M3470 7955 c0 -229 5 -252 62 -281 41 -21 100 -20 138 3 45 26 74 93
66 151 -7 58 -56 155 -102 204 -42 46 -141 128 -154 128 -6 0 -10 -81 -10
-205z"/>
<path d="M7930 7982 l-75 -27 -3 -207 c-2 -197 -1 -208 16 -208 14 0 30 27 67
113 100 231 115 272 115 315 0 37 -3 42 -22 41 -13 0 -57 -12 -98 -27z"/>
<path d="M2052 7851 c-33 -38 -78 -94 -101 -123 l-41 -55 0 -970 0 -970 66
-109 c37 -60 87 -145 111 -189 l43 -80 -5 660 c-7 821 -7 875 0 1443 4 310 3
462 -4 462 -5 0 -37 -31 -69 -69z"/>
<path d="M7633 7849 c-54 -28 -117 -62 -140 -77 l-43 -27 -2 -1137 c-4 -1807
-4 -1968 6 -1969 16 -2 83 118 121 215 66 172 103 345 130 611 9 83 22 188 30
235 13 71 15 261 15 1143 0 691 -3 1057 -10 1057 -5 0 -54 -23 -107 -51z"/>
<path d="M7237 7609 l-107 -79 0 -1636 c0 -1136 3 -1635 10 -1632 6 2 58 57
115 123 l104 119 -5 1590 c-2 874 -5 1591 -7 1592 -1 1 -51 -33 -110 -77z"/>
<path d="M1795 7440 c-53 -103 -117 -327 -141 -498 -22 -157 -19 -418 6 -557
35 -188 88 -365 139 -462 l20 -38 1 793 c0 435 -2 792 -5 792 -2 0 -11 -13
-20 -30z"/>
<path d="M6978 7409 c-26 -22 -85 -85 -132 -139 l-86 -99 0 -1919 0 -1919 48
-45 c57 -53 209 -168 223 -168 7 0 9 772 7 2165 -1 1191 -5 2165 -8 2165 -3
-1 -26 -19 -52 -41z"/>
<path d="M7840 6695 c0 -415 3 -755 7 -755 3 0 29 11 58 25 28 14 80 31 116
39 l64 13 3 651 2 650 -113 66 c-63 36 -119 66 -125 66 -9 0 -12 -185 -12
-755z"/>
<path d="M8190 6647 c0 -533 2 -608 15 -613 16 -7 106 35 140 64 68 57 195
287 195 352 0 31 -10 47 -65 108 -102 114 -108 130 -115 312 -5 149 -6 158
-37 220 -18 36 -54 87 -82 115 l-51 49 0 -607z"/>
<path d="M6546 6836 l-106 -174 0 -1490 0 -1490 59 -79 c33 -43 82 -103 110
-133 l50 -55 1 1798 c0 988 -2 1797 -4 1797 -2 0 -52 -78 -110 -174z"/>
<path d="M6220 6533 c-57 -28 -123 -49 -212 -68 l-28 -5 0 -1663 1 -1662 117
230 c65 127 134 258 155 291 l37 62 -2 1424 -3 1424 -65 -33z"/>
<path d="M4775 6483 c-22 -2 -50 -6 -62 -8 l-23 -5 0 -1286 c0 -1219 1 -1285
18 -1280 9 3 52 15 95 27 l77 22 -2 1266 -3 1266 -30 1 c-16 1 -48 -1 -70 -3z"/>
<path d="M5000 5220 l0 -1270 69 0 c38 0 83 -3 100 -6 l31 -6 0 1276 0 1276
-100 0 -100 0 0 -1270z"/>
<path d="M5315 5203 l0 -1276 60 -17 c33 -9 75 -20 93 -23 l32 -6 0 1293 0
1293 -37 7 c-21 3 -63 6 -93 6 l-55 0 0 -1277z"/>
<path d="M4462 6440 c-45 -11 -86 -21 -91 -24 -9 -6 -7 -2693 2 -2702 3 -3 51
27 106 66 l101 72 0 1304 c0 1236 -1 1304 -17 1303 -10 0 -55 -9 -101 -19z"/>
<path d="M5630 4341 l0 -2122 118 3 117 3 -2 180 c-1 99 -5 213 -8 252 -4 48
-1 103 9 164 14 82 16 294 16 1861 l0 1768 -57 0 c-32 0 -88 3 -125 7 l-68 6
0 -2122z"/>
<path d="M4215 6385 c-5 -2 -36 -11 -67 -20 l-58 -16 0 -1394 0 -1395 80 40
80 40 2 1365 c2 751 2 1370 0 1375 -4 10 -17 12 -37 5z"/>
<path d="M2226 5800 c5 -493 8 -563 24 -625 36 -136 45 -242 44 -490 -2 -190
-6 -266 -23 -366 -11 -70 -25 -137 -30 -151 -12 -32 -24 -1140 -12 -1113 5 11
19 48 31 81 30 86 89 172 149 218 l51 38 0 1334 0 1335 -71 72 c-39 40 -93
106 -120 147 l-49 75 6 -555z"/>
<path d="M3810 6246 c-58 -23 -149 -64 -202 -89 l-98 -46 0 -1682 0 -1681 46
-77 c124 -205 281 -398 352 -435 l32 -17 0 373 0 373 -35 53 c-106 156 -138
278 -96 360 19 37 101 112 122 112 5 0 9 630 9 1400 0 1113 -3 1400 -12 1400
-7 0 -60 -20 -118 -44z"/>
<path d="M3293 6020 l-43 -19 0 -1205 0 -1204 -45 -85 c-65 -124 -65 -124 64
-365 l109 -204 -2 1551 c-1 1544 -1 1551 -21 1550 -11 0 -39 -9 -62 -19z"/>
<path d="M2550 4716 l0 -1295 98 41 c53 22 103 45 110 50 9 8 12 265 12 1224
l0 1213 -42 11 c-24 6 -71 19 -106 30 -34 11 -65 20 -67 20 -3 0 -5 -582 -5
-1294z"/>
<path d="M2943 5953 l-73 -4 0 -322 c0 -177 -3 -717 -7 -1199 -6 -786 -5 -878
9 -878 30 0 167 98 191 137 l24 38 5 660 c4 363 4 866 0 1118 l-5 457 -36 -2
c-20 -1 -69 -4 -108 -5z"/>
<path d="M7130 3543 l0 -491 26 -17 c15 -10 64 -53 109 -96 l82 -79 6 327 5
328 -49 82 c-67 111 -101 188 -139 318 -18 61 -34 112 -36 114 -2 2 -4 -216
-4 -486z"/>
<path d="M2095 3960 c-20 -27 -70 -80 -111 -117 l-74 -68 0 -760 -1 -760 22
-18 c16 -13 40 -17 98 -17 42 0 82 4 88 8 10 6 13 203 15 895 2 488 2 887 1
887 -1 0 -18 -22 -38 -50z"/>
<path d="M1760 3695 c-30 -19 -58 -42 -63 -51 -16 -27 -37 -338 -37 -539 0
-464 41 -706 135 -795 l25 -23 0 721 c0 397 -1 722 -2 722 -2 0 -28 -16 -58
-35z"/>
<path d="M5503 3668 c-28 -64 -75 -283 -103 -478 -5 -41 -16 -120 -24 -175
-26 -181 -38 -363 -34 -488 5 -131 16 -168 73 -235 27 -32 93 -78 101 -70 2 3
3 335 2 739 -2 585 -5 728 -15 707z"/>
<path d="M7446 3033 c3 -208 10 -396 16 -417 16 -64 56 -147 93 -192 38 -46
126 -109 168 -119 l27 -7 0 384 0 385 -52 74 c-52 74 -233 269 -250 269 -5 0
-6 -158 -2 -377z"/>
<path d="M7840 2561 l0 -310 30 -16 c45 -23 151 -20 184 6 26 20 26 21 26 160
l0 140 -79 84 c-56 59 -91 107 -120 165 l-41 82 0 -311z"/>
<path d="M4050 2753 c0 -44 3 -182 7 -306 l6 -227 97 0 c93 0 98 1 104 23 3
12 6 104 6 204 l0 182 -74 60 c-41 34 -91 80 -110 103 l-36 42 0 -81z"/>
<path d="M4360 2427 c0 -96 3 -182 6 -191 5 -13 23 -16 94 -16 81 0 91 2 119
26 28 24 31 31 31 87 0 126 -88 228 -226 263 l-24 6 0 -175z"/>
<path d="M2224 2547 c-2 -7 -3 -82 -2 -167 l3 -155 74 -3 c95 -4 125 9 146 60
35 87 -16 211 -105 256 -49 24 -108 29 -116 9z"/>
<path d="M5962 2394 l3 -169 73 -3 c70 -3 74 -2 104 28 29 30 30 34 26 95 -9
110 -80 197 -172 212 l-36 6 2 -169z"/>
<path d="M8160 2400 c0 -63 4 -100 10 -100 12 0 49 76 50 99 0 21 -40 101 -51
101 -5 0 -9 -45 -9 -100z"/>
</g>
</svg>
